<?xml version="1.0" encoding="UTF-8"?>
<svg id="Capa_1" xmlns="http://www.w3.org/2000/svg" xmlns:xlink="http://www.w3.org/1999/xlink" version="1.1" viewBox="0 0 88 32">
  <!-- Generator: Adobe Illustrator 29.5.0, SVG Export Plug-In . SVG Version: 2.1.0 Build 137)  -->
  <defs>
    <style>
      .st0 {
        fill: none;
      }

      .st1 {
        fill: #1b1464;
      }

      .st2 {
        fill: #21579c;
      }

      .st3 {
        fill: #29a6de;
      }

      .st4 {
        fill: #2470b1;
      }

      .st5 {
        clip-path: url(#clippath);
      }
    </style>
    <clipPath id="clippath">
      <path class="st0" d="M42.7,5.4v25.3h38.3V5.4h-38.3ZM74.3,16l-6.6,4-4.1,2.5-2.6-4.1,1-5.3,5.7.6,5.6-.6,5.2-1.2.7,2.6-4.9,1.5Z"/>
    </clipPath>
  </defs>
  <g>
    <path class="st3" d="M13.5,24.4c-.7,0-1.4-.1-2.1-.4-.6-.2-1.2-.6-1.7-1-.5-.4-.8-.9-1.1-1.5-.3-.6-.4-1.2-.4-1.9s.2-1.4.5-2c.3-.6.8-1.1,1.3-1.5.6-.4,1.3-.8,2.1-1,.8-.2,1.7-.4,2.6-.4s1.4,0,2.2.2c.7.1,1.3.3,1.9.5v-1.1c0-1.1-.3-2-1-2.7-.7-.6-1.6-1-2.8-1s-1.6.2-2.4.5c-.8.3-1.6.7-2.5,1.3l-1-2.1c2-1.3,4.1-2,6.2-2s3.8.5,5,1.6c1.2,1.1,1.8,2.6,1.8,4.7v5.6c0,.7.3,1,.9,1.1v2.8c-.3,0-.6,0-.8.1-.2,0-.4,0-.7,0-.6,0-1.1-.2-1.5-.5-.3-.3-.6-.7-.6-1.2v-1c-.8.9-1.6,1.6-2.6,2.1-1,.5-2.1.7-3.3.7ZM14.4,22c.8,0,1.5-.1,2.2-.4.7-.3,1.2-.7,1.6-1.2.4-.4.6-.7.6-1.1v-2c-.6-.2-1.1-.4-1.8-.5-.6-.1-1.2-.2-1.8-.2-1.2,0-2.1.3-2.9.8s-1.1,1.2-1.1,2,.3,1.4.9,1.9c.6.5,1.3.8,2.2.8Z"/>
    <path class="st3" d="M26.1,6.1v-3.6h3.3v3.6h-3.3ZM26.1,24.1v-15.5h3.3v15.5h-3.3Z"/>
    <path class="st3" d="M41.9,11.4c-1.3,0-2.4.3-3.4.9-1,.5-1.7,1.3-2.1,2.3v9.5h-3.3v-15.5h3v3.5c.5-1.1,1.2-1.9,2.1-2.6.9-.6,1.8-1,2.8-1h.5c.1,0,.2,0,.3,0v2.9Z"/>
  </g>
  <g>
    <polygon class="st2" points="78.5 12.7 61 22.9 63.9 15.9 78.5 12.7"/>
    <polygon class="st4" points="63.4 14.2 69.8 14.6 63.9 15.9 63.4 14.2"/>
    <polygon class="st1" points="80.7 13.2 78.5 12.7 73.6 15.5 80.7 13.2"/>
    <polygon class="st3" points="59.6 15.5 71.8 16.6 62.7 18.8 59.6 15.5"/>
  </g>
  <g class="st5">
    <g>
      <path class="st1" d="M50.4,8.1c.8,0,1.6.1,2.3.4.7.3,1.3.6,1.8,1,.5.4.9.8,1.2,1.2.3.4.4.7.4,1l-.8.4v-2.1c0-.5.2-.9.5-1.3.3-.3.8-.5,1.3-.5s.9.2,1.3.5c.3.3.5.8.5,1.3v13c0,1.7-.4,3.1-1.1,4.1-.7,1-1.7,1.8-2.9,2.2-1.2.5-2.5.7-3.8.7s-.9,0-1.5-.1c-.6,0-1.2-.2-1.8-.4-.6-.1-1-.3-1.3-.4-.6-.3-1-.6-1.2-1-.2-.4-.3-.8-.1-1.2.2-.6.5-1,.8-1.2.4-.2.8-.2,1.2,0,.2,0,.5.2,1,.4.4.2.9.3,1.5.5.5.1,1,.2,1.4.2,1.5,0,2.5-.3,3.3-.9.7-.6,1.1-1.4,1.1-2.4v-2.5l.4.3c0,.3-.1.6-.4.9-.3.4-.6.7-1.1,1.1-.5.4-1,.6-1.6.9-.6.2-1.3.4-2,.4-1.4,0-2.6-.3-3.7-1-1.1-.7-2-1.7-2.6-2.9-.6-1.2-1-2.6-1-4.2s.3-3,1-4.2c.6-1.2,1.5-2.2,2.6-2.9,1.1-.7,2.3-1,3.7-1ZM51,11.3c-.9,0-1.7.2-2.3.6-.7.4-1.2,1-1.6,1.8-.4.7-.6,1.6-.6,2.5s.2,1.7.6,2.5c.4.7.9,1.3,1.6,1.8.7.4,1.4.6,2.3.6s1.7-.2,2.3-.6c.7-.4,1.2-1,1.6-1.8.4-.7.6-1.6.6-2.5s-.2-1.8-.6-2.5c-.4-.7-.9-1.3-1.6-1.8-.7-.4-1.4-.6-2.3-.6Z"/>
      <path class="st1" d="M78.3,16.2c0,1.6-.4,3-1.1,4.2-.7,1.2-1.7,2.2-2.9,2.9-1.2.7-2.5,1-4,1s-2.8-.3-4-1c-1.2-.7-2.2-1.6-2.9-2.9-.7-1.2-1.1-2.6-1.1-4.2s.4-3,1.1-4.2c.7-1.2,1.7-2.2,2.9-2.9,1.2-.7,2.5-1,4-1s2.8.3,4,1c1.2.7,2.2,1.7,2.9,2.9.7,1.2,1.1,2.6,1.1,4.2ZM74.8,16.2c0-1-.2-1.9-.6-2.6-.4-.7-.9-1.3-1.6-1.7-.7-.4-1.4-.6-2.2-.6s-1.6.2-2.2.6c-.7.4-1.2,1-1.6,1.7-.4.7-.6,1.6-.6,2.6s.2,1.8.6,2.6c.4.7.9,1.3,1.6,1.7.7.4,1.4.6,2.2.6s1.6-.2,2.2-.6c.7-.4,1.2-1,1.6-1.7.4-.7.6-1.6.6-2.6Z"/>
    </g>
  </g>
</svg>