<?xml version="1.0" encoding="UTF-8"?>
<svg id="Capa_1" xmlns="http://www.w3.org/2000/svg" xmlns:xlink="http://www.w3.org/1999/xlink" version="1.1" viewBox="0 0 175.9 78.3">
  <!-- Generator: Adobe Illustrator 29.5.0, SVG Export Plug-In . SVG Version: 2.1.0 Build 137)  -->
  <defs>
    <style>
      .st0 {
        fill: none;
      }

      .st1 {
        fill: #1b1464;
      }

      .st2 {
        fill: #21579c;
      }

      .st3 {
        fill: #29a6de;
      }

      .st4 {
        fill: #2470b1;
      }

      .st5 {
        clip-path: url(#clippath);
      }
    </style>
    <clipPath id="clippath">
      <path class="st0" d="M88.4,17.1v55.3h83.6V17.1h-83.6ZM157.5,40.3l-14.5,8.7-8.9,5.5-5.6-8.9,2.1-11.6,12.4,1.3,12.2-1.3,11.4-2.6,1.4,5.6-10.6,3.2Z"/>
    </clipPath>
  </defs>
  <g>
    <path class="st3" d="M24.8,58.6c-1.6,0-3.2-.3-4.5-.8-1.4-.5-2.6-1.3-3.6-2.2-1-.9-1.8-2.1-2.4-3.4-.6-1.3-.9-2.7-.9-4.2s.3-3,1-4.3c.7-1.3,1.7-2.4,2.9-3.4,1.3-.9,2.8-1.7,4.5-2.2,1.7-.5,3.7-.8,5.8-.8s3.2.1,4.7.4c1.5.3,2.9.7,4.2,1.1v-2.3c0-2.5-.7-4.4-2.1-5.8-1.4-1.4-3.5-2.1-6.1-2.1s-3.6.3-5.3,1c-1.7.7-3.5,1.6-5.4,2.9l-2.2-4.5c4.3-2.9,8.9-4.4,13.6-4.4s8.3,1.2,10.8,3.5c2.6,2.4,3.9,5.8,3.9,10.2v12.2c0,1.5.6,2.3,1.9,2.3v6.1c-.7.1-1.3.2-1.8.3-.5,0-1,0-1.5,0-1.4,0-2.4-.3-3.2-1-.8-.7-1.2-1.6-1.4-2.6l-.2-2.1c-1.5,2-3.4,3.5-5.6,4.5-2.2,1.1-4.6,1.6-7.1,1.6ZM26.7,53.4c1.7,0,3.3-.3,4.9-.9,1.5-.6,2.7-1.5,3.6-2.6.9-.8,1.4-1.6,1.4-2.5v-4.5c-1.2-.5-2.5-.8-3.8-1.1-1.4-.3-2.7-.4-4-.4-2.5,0-4.6.5-6.2,1.6s-2.4,2.5-2.4,4.4.6,3.1,1.9,4.2c1.2,1.1,2.8,1.7,4.8,1.7Z"/>
    <path class="st3" d="M52.2,18.7v-7.8h7.1v7.8h-7.1ZM52.2,58V24.2h7.1v33.7h-7.1Z"/>
    <path class="st3" d="M86.8,30.4c-2.8,0-5.2.7-7.3,1.9-2.1,1.2-3.6,2.9-4.5,5.1v20.6h-7.1V24.2h6.6v7.5c1.2-2.3,2.7-4.2,4.5-5.6,1.9-1.4,3.9-2.2,6-2.3h1.1c.3,0,.5,0,.7,0v6.4Z"/>
  </g>
  <g>
    <polygon class="st2" points="166.7 33.1 128.5 55.4 134.8 40.2 166.7 33.1"/>
    <polygon class="st4" points="133.7 36.4 147.6 37.4 134.8 40.2 133.7 36.4"/>
    <polygon class="st1" points="171.4 34.2 166.7 33.1 156 39.4 171.4 34.2"/>
    <polygon class="st3" points="125.4 39.3 152 41.7 132.2 46.5 125.4 39.3"/>
  </g>
  <g class="st5">
    <g>
      <path class="st1" d="M105.4,23.1c1.8,0,3.4.3,4.9.8,1.5.6,2.8,1.3,3.9,2.1,1.1.9,1.9,1.7,2.6,2.6.6.9.9,1.6.9,2.2l-1.7.8v-4.7c0-1.1.4-2,1.1-2.8.7-.7,1.6-1.1,2.7-1.1s2,.4,2.7,1.1c.7.7,1.1,1.7,1.1,2.8v28.5c0,3.7-.8,6.7-2.4,8.9-1.6,2.2-3.7,3.9-6.3,4.9-2.6,1-5.4,1.5-8.4,1.5s-2-.1-3.3-.3c-1.4-.2-2.7-.5-3.9-.8-1.2-.3-2.2-.6-2.8-.8-1.3-.6-2.2-1.2-2.7-2.1-.5-.8-.6-1.7-.3-2.7.4-1.2,1-2.1,1.9-2.5.9-.4,1.7-.5,2.7-.2.4.1,1.1.4,2.1.8,1,.4,2.1.7,3.2,1.1,1.2.3,2.2.5,3.1.5,3.2,0,5.6-.6,7.1-1.9,1.5-1.3,2.3-3,2.3-5.3v-5.6l.8.6c0,.6-.3,1.2-.9,2-.6.8-1.4,1.6-2.4,2.3-1,.8-2.2,1.4-3.5,2-1.4.5-2.8.8-4.3.8-3,0-5.8-.8-8.2-2.3-2.4-1.5-4.3-3.6-5.8-6.3-1.4-2.7-2.1-5.7-2.1-9.2s.7-6.6,2.1-9.2c1.4-2.7,3.3-4.8,5.7-6.3,2.4-1.5,5.1-2.3,8-2.3ZM106.6,30.1c-1.9,0-3.6.5-5.1,1.4-1.4.9-2.6,2.2-3.4,3.8-.8,1.6-1.2,3.5-1.2,5.5s.4,3.8,1.2,5.4c.8,1.6,1.9,2.9,3.4,3.8,1.4.9,3.1,1.4,5.1,1.4s3.7-.5,5.1-1.4c1.4-.9,2.6-2.2,3.4-3.8.8-1.6,1.2-3.4,1.2-5.4s-.4-3.9-1.2-5.5c-.8-1.6-1.9-2.9-3.4-3.8-1.4-.9-3.2-1.4-5.1-1.4Z"/>
      <path class="st1" d="M166.2,40.9c0,3.5-.8,6.6-2.3,9.2-1.6,2.7-3.6,4.7-6.3,6.2-2.6,1.5-5.6,2.2-8.8,2.2s-6.2-.7-8.8-2.2c-2.6-1.5-4.7-3.6-6.3-6.2-1.6-2.7-2.3-5.7-2.3-9.2s.8-6.6,2.3-9.2c1.6-2.7,3.6-4.8,6.3-6.3,2.6-1.5,5.6-2.3,8.8-2.3s6.2.8,8.8,2.3c2.6,1.5,4.7,3.6,6.3,6.3,1.6,2.7,2.3,5.7,2.3,9.2ZM158.5,40.9c0-2.2-.4-4.1-1.3-5.7-.9-1.6-2-2.8-3.5-3.7-1.5-.9-3.1-1.3-4.9-1.3s-3.4.4-4.9,1.3c-1.5.9-2.6,2.1-3.5,3.7-.9,1.6-1.3,3.5-1.3,5.7s.4,4,1.3,5.6c.9,1.6,2,2.8,3.5,3.7,1.5.9,3.1,1.3,4.9,1.3s3.4-.4,4.9-1.3c1.5-.9,2.6-2.1,3.5-3.7.9-1.6,1.3-3.5,1.3-5.6Z"/>
    </g>
  </g>
</svg>